M48
; DRILL file {KiCad 9.0.6} date 2026-03-28T15:48:39-0700
; FORMAT={-:-/ absolute / metric / decimal}
; #@! TF.CreationDate,2026-03-28T15:48:39-07:00
; #@! TF.GenerationSoftware,Kicad,Pcbnew,9.0.6
; #@! TF.FileFunction,Plated,1,4,PTH
FMAT,2
METRIC
; #@! TA.AperFunction,Plated,PTH,ComponentDrill
T1C0.200
; #@! TA.AperFunction,Plated,PTH,ViaDrill
T2C0.300
; #@! TA.AperFunction,Plated,PTH,ComponentDrill
T3C0.600
; #@! TA.AperFunction,Plated,PTH,ComponentDrill
T4C0.650
; #@! TA.AperFunction,Plated,PTH,ComponentDrill
T5C0.950
; #@! TA.AperFunction,Plated,PTH,ComponentDrill
T6C1.000
%
G90
G05
T1
X145.84Y-101.6
X145.84Y-103.0
X146.54Y-100.9
X146.54Y-102.3
X146.54Y-103.7
X147.24Y-101.6
X147.24Y-103.0
X147.94Y-100.9
X147.94Y-102.3
X147.94Y-103.7
X148.64Y-101.6
X148.64Y-103.0
T2
X113.68Y-100.65
X114.48Y-98.175
X115.58Y-104.55
X115.805Y-94.1
X115.868Y-100.87
X117.43Y-101.325
X118.13Y-89.725
X119.034Y-96.776
X121.98Y-103.125
X122.955Y-109.825
X123.58Y-94.45
X123.93Y-89.1
X125.43Y-97.875
X128.105Y-114.0
X128.655Y-89.75
X131.755Y-89.725
X135.18Y-89.225
X135.68Y-116.5
X135.705Y-115.275
X136.28Y-117.75
X136.38Y-93.85
X136.48Y-114.05
X137.255Y-89.25
X139.68Y-93.75
X142.205Y-88.975
X142.38Y-114.05
X144.78Y-93.05
X144.78Y-114.65
X146.07Y-93.04
X148.38Y-92.05
X149.68Y-93.35
X149.68Y-118.175
X153.88Y-89.925
X154.98Y-113.85
X155.43Y-89.95
T5
X121.13Y-109.8
X121.13Y-112.3
X121.13Y-114.8
X121.13Y-117.3
T6
X129.59Y-87.3
X132.13Y-87.3
X134.67Y-87.3
X137.21Y-87.3
T3
G00X117.03Y-97.125
M15
G01X117.73Y-97.125
M16
G05
G00X117.03Y-105.475
M15
G01X117.73Y-105.475
M16
G05
T4
G00X114.28Y-99.075
M15
G01X114.48Y-99.075
M16
G05
G00X114.28Y-103.525
M15
G01X114.48Y-103.525
M16
G05
M30
