%TF.GenerationSoftware,KiCad,Pcbnew,9.0.6*%
%TF.CreationDate,2026-03-28T15:48:50-07:00*%
%TF.ProjectId,OBDTelemetryPCB,4f424454-656c-4656-9d65-747279504342,rev?*%
%TF.SameCoordinates,Original*%
%TF.FileFunction,Legend,Bot*%
%TF.FilePolarity,Positive*%
%FSLAX46Y46*%
G04 Gerber Fmt 4.6, Leading zero omitted, Abs format (unit mm)*
G04 Created by KiCad (PCBNEW 9.0.6) date 2026-03-28 15:48:50*
%MOMM*%
%LPD*%
G01*
G04 APERTURE LIST*
%ADD10C,0.150000*%
%ADD11C,0.120000*%
G04 APERTURE END LIST*
D10*
X129946666Y-91304819D02*
X130279999Y-90828628D01*
X130518094Y-91304819D02*
X130518094Y-90304819D01*
X130518094Y-90304819D02*
X130137142Y-90304819D01*
X130137142Y-90304819D02*
X130041904Y-90352438D01*
X130041904Y-90352438D02*
X129994285Y-90400057D01*
X129994285Y-90400057D02*
X129946666Y-90495295D01*
X129946666Y-90495295D02*
X129946666Y-90638152D01*
X129946666Y-90638152D02*
X129994285Y-90733390D01*
X129994285Y-90733390D02*
X130041904Y-90781009D01*
X130041904Y-90781009D02*
X130137142Y-90828628D01*
X130137142Y-90828628D02*
X130518094Y-90828628D01*
X129089523Y-90638152D02*
X129089523Y-91304819D01*
X129327618Y-90257200D02*
X129565713Y-90971485D01*
X129565713Y-90971485D02*
X128946666Y-90971485D01*
X133046666Y-91304819D02*
X133379999Y-90828628D01*
X133618094Y-91304819D02*
X133618094Y-90304819D01*
X133618094Y-90304819D02*
X133237142Y-90304819D01*
X133237142Y-90304819D02*
X133141904Y-90352438D01*
X133141904Y-90352438D02*
X133094285Y-90400057D01*
X133094285Y-90400057D02*
X133046666Y-90495295D01*
X133046666Y-90495295D02*
X133046666Y-90638152D01*
X133046666Y-90638152D02*
X133094285Y-90733390D01*
X133094285Y-90733390D02*
X133141904Y-90781009D01*
X133141904Y-90781009D02*
X133237142Y-90828628D01*
X133237142Y-90828628D02*
X133618094Y-90828628D01*
X132141904Y-90304819D02*
X132618094Y-90304819D01*
X132618094Y-90304819D02*
X132665713Y-90781009D01*
X132665713Y-90781009D02*
X132618094Y-90733390D01*
X132618094Y-90733390D02*
X132522856Y-90685771D01*
X132522856Y-90685771D02*
X132284761Y-90685771D01*
X132284761Y-90685771D02*
X132189523Y-90733390D01*
X132189523Y-90733390D02*
X132141904Y-90781009D01*
X132141904Y-90781009D02*
X132094285Y-90876247D01*
X132094285Y-90876247D02*
X132094285Y-91114342D01*
X132094285Y-91114342D02*
X132141904Y-91209580D01*
X132141904Y-91209580D02*
X132189523Y-91257200D01*
X132189523Y-91257200D02*
X132284761Y-91304819D01*
X132284761Y-91304819D02*
X132522856Y-91304819D01*
X132522856Y-91304819D02*
X132618094Y-91257200D01*
X132618094Y-91257200D02*
X132665713Y-91209580D01*
X139044819Y-86966666D02*
X139759104Y-86966666D01*
X139759104Y-86966666D02*
X139901961Y-86919047D01*
X139901961Y-86919047D02*
X139997200Y-86823809D01*
X139997200Y-86823809D02*
X140044819Y-86680952D01*
X140044819Y-86680952D02*
X140044819Y-86585714D01*
X139044819Y-87347619D02*
X139044819Y-87966666D01*
X139044819Y-87966666D02*
X139425771Y-87633333D01*
X139425771Y-87633333D02*
X139425771Y-87776190D01*
X139425771Y-87776190D02*
X139473390Y-87871428D01*
X139473390Y-87871428D02*
X139521009Y-87919047D01*
X139521009Y-87919047D02*
X139616247Y-87966666D01*
X139616247Y-87966666D02*
X139854342Y-87966666D01*
X139854342Y-87966666D02*
X139949580Y-87919047D01*
X139949580Y-87919047D02*
X139997200Y-87871428D01*
X139997200Y-87871428D02*
X140044819Y-87776190D01*
X140044819Y-87776190D02*
X140044819Y-87490476D01*
X140044819Y-87490476D02*
X139997200Y-87395238D01*
X139997200Y-87395238D02*
X139949580Y-87347619D01*
D11*
%TO.C,J3*%
X138590000Y-88680000D02*
X138590000Y-87300000D01*
X137210000Y-88680000D02*
X138590000Y-88680000D01*
X135940000Y-88680000D02*
X135940000Y-85920000D01*
X135940000Y-88680000D02*
X128210000Y-88680000D01*
X135940000Y-85920000D02*
X128210000Y-85920000D01*
X128210000Y-88680000D02*
X128210000Y-85920000D01*
%TD*%
M02*
