%TF.GenerationSoftware,KiCad,Pcbnew,9.0.6*%
%TF.CreationDate,2026-03-28T15:48:50-07:00*%
%TF.ProjectId,OBDTelemetryPCB,4f424454-656c-4656-9d65-747279504342,rev?*%
%TF.SameCoordinates,Original*%
%TF.FileFunction,Copper,L1,Top*%
%TF.FilePolarity,Positive*%
%FSLAX46Y46*%
G04 Gerber Fmt 4.6, Leading zero omitted, Abs format (unit mm)*
G04 Created by KiCad (PCBNEW 9.0.6) date 2026-03-28 15:48:50*
%MOMM*%
%LPD*%
G01*
G04 APERTURE LIST*
G04 Aperture macros list*
%AMRoundRect*
0 Rectangle with rounded corners*
0 $1 Rounding radius*
0 $2 $3 $4 $5 $6 $7 $8 $9 X,Y pos of 4 corners*
0 Add a 4 corners polygon primitive as box body*
4,1,4,$2,$3,$4,$5,$6,$7,$8,$9,$2,$3,0*
0 Add four circle primitives for the rounded corners*
1,1,$1+$1,$2,$3*
1,1,$1+$1,$4,$5*
1,1,$1+$1,$6,$7*
1,1,$1+$1,$8,$9*
0 Add four rect primitives between the rounded corners*
20,1,$1+$1,$2,$3,$4,$5,0*
20,1,$1+$1,$4,$5,$6,$7,0*
20,1,$1+$1,$6,$7,$8,$9,0*
20,1,$1+$1,$8,$9,$2,$3,0*%
G04 Aperture macros list end*
%TA.AperFunction,SMDPad,CuDef*%
%ADD10RoundRect,0.100000X0.575000X-0.100000X0.575000X0.100000X-0.575000X0.100000X-0.575000X-0.100000X0*%
%TD*%
%TA.AperFunction,HeatsinkPad*%
%ADD11O,1.900000X1.000000*%
%TD*%
%TA.AperFunction,SMDPad,CuDef*%
%ADD12R,1.900000X0.875000*%
%TD*%
%TA.AperFunction,HeatsinkPad*%
%ADD13O,1.250000X1.050000*%
%TD*%
%TA.AperFunction,SMDPad,CuDef*%
%ADD14RoundRect,0.250000X0.700000X-1.200000X0.700000X1.200000X-0.700000X1.200000X-0.700000X-1.200000X0*%
%TD*%
%TA.AperFunction,SMDPad,CuDef*%
%ADD15RoundRect,0.225000X-0.225000X-0.375000X0.225000X-0.375000X0.225000X0.375000X-0.225000X0.375000X0*%
%TD*%
%TA.AperFunction,SMDPad,CuDef*%
%ADD16RoundRect,0.225000X-0.225000X-0.250000X0.225000X-0.250000X0.225000X0.250000X-0.225000X0.250000X0*%
%TD*%
%TA.AperFunction,SMDPad,CuDef*%
%ADD17RoundRect,0.225000X0.225000X0.250000X-0.225000X0.250000X-0.225000X-0.250000X0.225000X-0.250000X0*%
%TD*%
%TA.AperFunction,SMDPad,CuDef*%
%ADD18RoundRect,0.225000X-0.250000X0.225000X-0.250000X-0.225000X0.250000X-0.225000X0.250000X0.225000X0*%
%TD*%
%TA.AperFunction,SMDPad,CuDef*%
%ADD19RoundRect,0.150000X0.825000X0.150000X-0.825000X0.150000X-0.825000X-0.150000X0.825000X-0.150000X0*%
%TD*%
%TA.AperFunction,ComponentPad*%
%ADD20RoundRect,0.250000X-0.725000X0.600000X-0.725000X-0.600000X0.725000X-0.600000X0.725000X0.600000X0*%
%TD*%
%TA.AperFunction,ComponentPad*%
%ADD21O,1.950000X1.700000*%
%TD*%
%TA.AperFunction,SMDPad,CuDef*%
%ADD22RoundRect,0.150000X0.150000X-0.512500X0.150000X0.512500X-0.150000X0.512500X-0.150000X-0.512500X0*%
%TD*%
%TA.AperFunction,SMDPad,CuDef*%
%ADD23RoundRect,0.100000X-0.130000X-0.100000X0.130000X-0.100000X0.130000X0.100000X-0.130000X0.100000X0*%
%TD*%
%TA.AperFunction,SMDPad,CuDef*%
%ADD24RoundRect,0.100000X-0.100000X0.130000X-0.100000X-0.130000X0.100000X-0.130000X0.100000X0.130000X0*%
%TD*%
%TA.AperFunction,SMDPad,CuDef*%
%ADD25R,1.250000X1.000000*%
%TD*%
%TA.AperFunction,SMDPad,CuDef*%
%ADD26R,0.900000X1.500000*%
%TD*%
%TA.AperFunction,SMDPad,CuDef*%
%ADD27R,1.500000X0.900000*%
%TD*%
%TA.AperFunction,HeatsinkPad*%
%ADD28C,0.600000*%
%TD*%
%TA.AperFunction,HeatsinkPad*%
%ADD29R,3.900000X3.900000*%
%TD*%
%TA.AperFunction,SMDPad,CuDef*%
%ADD30RoundRect,0.375000X0.375000X-0.625000X0.375000X0.625000X-0.375000X0.625000X-0.375000X-0.625000X0*%
%TD*%
%TA.AperFunction,SMDPad,CuDef*%
%ADD31RoundRect,0.500000X1.400000X-0.500000X1.400000X0.500000X-1.400000X0.500000X-1.400000X-0.500000X0*%
%TD*%
%TA.AperFunction,ComponentPad*%
%ADD32R,1.700000X1.700000*%
%TD*%
%TA.AperFunction,ComponentPad*%
%ADD33C,1.700000*%
%TD*%
%TA.AperFunction,ViaPad*%
%ADD34C,0.600000*%
%TD*%
%TA.AperFunction,Conductor*%
%ADD35C,0.200000*%
%TD*%
%TA.AperFunction,Conductor*%
%ADD36C,0.500000*%
%TD*%
G04 APERTURE END LIST*
D10*
%TO.P,J1,1,VBUS*%
%TO.N,+5V*%
X114705000Y-100000000D03*
%TO.P,J1,2,D-*%
%TO.N,/D-*%
X114705000Y-100650000D03*
%TO.P,J1,3,D+*%
%TO.N,/D+*%
X114705000Y-101300000D03*
%TO.P,J1,4,ID*%
%TO.N,unconnected-(J1-ID-Pad4)*%
X114705000Y-101950000D03*
%TO.P,J1,5,GND*%
%TO.N,GND*%
X114705000Y-102600000D03*
D11*
%TO.P,J1,6,Shield*%
X117380000Y-105475000D03*
D12*
X117380000Y-105037500D03*
D13*
X114380000Y-103525000D03*
D14*
X117380000Y-101300000D03*
D13*
X114380000Y-99075000D03*
D12*
X117380000Y-97562500D03*
D11*
X117380000Y-97125000D03*
%TD*%
D15*
%TO.P,D1,1,A1*%
%TO.N,GND*%
X121925000Y-105050000D03*
%TO.P,D1,2,A2*%
%TO.N,+12V*%
X125225000Y-105050000D03*
%TD*%
D16*
%TO.P,C4,1*%
%TO.N,+3.3V*%
X153880000Y-92800000D03*
%TO.P,C4,2*%
%TO.N,GND*%
X155430000Y-92800000D03*
%TD*%
D17*
%TO.P,C5,1*%
%TO.N,+12V*%
X125255000Y-102950000D03*
%TO.P,C5,2*%
%TO.N,GND*%
X123705000Y-102950000D03*
%TD*%
D18*
%TO.P,C7,1*%
%TO.N,Net-(U3-SW)*%
X121980000Y-96475000D03*
%TO.P,C7,2*%
%TO.N,Net-(U3-BST)*%
X121980000Y-98025000D03*
%TD*%
D16*
%TO.P,C6,1*%
%TO.N,+3.3V*%
X153880000Y-91050000D03*
%TO.P,C6,2*%
%TO.N,GND*%
X155430000Y-91050000D03*
%TD*%
D19*
%TO.P,U4,8,Rs*%
%TO.N,unconnected-(U4-Rs-Pad8)*%
X129380000Y-117800000D03*
%TO.P,U4,7,CANH*%
%TO.N,/CANH*%
X129380000Y-116530000D03*
%TO.P,U4,6,CANL*%
%TO.N,/CANL*%
X129380000Y-115260000D03*
%TO.P,U4,5,Vref*%
%TO.N,GND*%
X129380000Y-113990000D03*
%TO.P,U4,4,R*%
%TO.N,/RTX*%
X134330000Y-113990000D03*
%TO.P,U4,3,VCC*%
%TO.N,+3.3V*%
X134330000Y-115260000D03*
%TO.P,U4,2,GND*%
%TO.N,GND*%
X134330000Y-116530000D03*
%TO.P,U4,1,D*%
%TO.N,/DTX*%
X134330000Y-117800000D03*
%TD*%
D16*
%TO.P,C8,2*%
%TO.N,+5V*%
X126280000Y-93500000D03*
%TO.P,C8,1*%
%TO.N,GND*%
X124730000Y-93500000D03*
%TD*%
D20*
%TO.P,J2,1,Pin_1*%
%TO.N,GND*%
X121130000Y-109800000D03*
D21*
%TO.P,J2,2,Pin_2*%
%TO.N,/CANL*%
X121130000Y-112300000D03*
%TO.P,J2,3,Pin_3*%
%TO.N,/CANH*%
X121130000Y-114800000D03*
%TO.P,J2,4,Pin_4*%
%TO.N,+12V*%
X121130000Y-117300000D03*
%TD*%
D22*
%TO.P,U3,1,FB*%
%TO.N,+5V*%
X123530000Y-101087500D03*
%TO.P,U3,2,EN*%
%TO.N,+12V*%
X124480000Y-101087500D03*
%TO.P,U3,3,IN*%
X125430000Y-101087500D03*
%TO.P,U3,4,GND*%
%TO.N,GND*%
X125430000Y-98812500D03*
%TO.P,U3,5,SW*%
%TO.N,Net-(U3-SW)*%
X124480000Y-98812500D03*
%TO.P,U3,6,BST*%
%TO.N,Net-(U3-BST)*%
X123530000Y-98812500D03*
%TD*%
D17*
%TO.P,C1,2*%
%TO.N,GND*%
X118905000Y-94950000D03*
%TO.P,C1,1*%
%TO.N,+5V*%
X120455000Y-94950000D03*
%TD*%
D23*
%TO.P,L1,2,2*%
%TO.N,+5V*%
X125425000Y-96950000D03*
%TO.P,L1,1,1*%
%TO.N,Net-(U3-SW)*%
X124785000Y-96950000D03*
%TD*%
D24*
%TO.P,R3,2*%
%TO.N,/CANH*%
X127080000Y-116195000D03*
%TO.P,R3,1*%
%TO.N,/CANL*%
X127080000Y-115555000D03*
%TD*%
D23*
%TO.P,R2,1*%
%TO.N,+3.3V*%
X150560000Y-93350000D03*
%TO.P,R2,2*%
%TO.N,/EN*%
X151200000Y-93350000D03*
%TD*%
D25*
%TO.P,SW1,2,2*%
%TO.N,/BOOT*%
X140605000Y-118150000D03*
%TO.P,SW1,1,1*%
%TO.N,GND*%
X148355000Y-118150000D03*
%TD*%
D23*
%TO.P,R1,2*%
%TO.N,/BOOT*%
X137700000Y-115750000D03*
%TO.P,R1,1*%
%TO.N,+3.3V*%
X137060000Y-115750000D03*
%TD*%
D16*
%TO.P,C3,2*%
%TO.N,/EN*%
X150855000Y-92050000D03*
%TO.P,C3,1*%
%TO.N,GND*%
X149305000Y-92050000D03*
%TD*%
%TO.P,C9,2*%
%TO.N,+5V*%
X126280000Y-95250000D03*
%TO.P,C9,1*%
%TO.N,GND*%
X124730000Y-95250000D03*
%TD*%
D26*
%TO.P,U2,1,GND*%
%TO.N,GND*%
X154960000Y-95050000D03*
%TO.P,U2,2,3V3*%
%TO.N,+3.3V*%
X153690000Y-95050000D03*
%TO.P,U2,3,EN*%
%TO.N,/EN*%
X152420000Y-95050000D03*
%TO.P,U2,4,IO4*%
%TO.N,unconnected-(U2-IO4-Pad4)*%
X151150000Y-95050000D03*
%TO.P,U2,5,IO5*%
%TO.N,unconnected-(U2-IO5-Pad5)*%
X149880000Y-95050000D03*
%TO.P,U2,6,IO6*%
%TO.N,unconnected-(U2-IO6-Pad6)*%
X148610000Y-95050000D03*
%TO.P,U2,7,IO7*%
%TO.N,unconnected-(U2-IO7-Pad7)*%
X147340000Y-95050000D03*
%TO.P,U2,8,IO15*%
%TO.N,/SCL*%
X146070000Y-95050000D03*
%TO.P,U2,9,IO16*%
%TO.N,/SDA*%
X144800000Y-95050000D03*
%TO.P,U2,10,IO17*%
%TO.N,unconnected-(U2-IO17-Pad10)*%
X143530000Y-95050000D03*
%TO.P,U2,11,IO18*%
%TO.N,unconnected-(U2-IO18-Pad11)*%
X142260000Y-95050000D03*
%TO.P,U2,12,IO8*%
%TO.N,unconnected-(U2-IO8-Pad12)*%
X140990000Y-95050000D03*
%TO.P,U2,13,USB_D-*%
%TO.N,/D-*%
X139720000Y-95050000D03*
%TO.P,U2,14,USB_D+*%
%TO.N,/D+*%
X138450000Y-95050000D03*
D27*
%TO.P,U2,15,IO3*%
%TO.N,unconnected-(U2-IO3-Pad15)*%
X137200000Y-96815000D03*
%TO.P,U2,16,IO46*%
%TO.N,unconnected-(U2-IO46-Pad16)*%
X137200000Y-98085000D03*
%TO.P,U2,17,IO9*%
%TO.N,unconnected-(U2-IO9-Pad17)*%
X137200000Y-99355000D03*
%TO.P,U2,18,IO10*%
%TO.N,unconnected-(U2-IO10-Pad18)*%
X137200000Y-100625000D03*
%TO.P,U2,19,IO11*%
%TO.N,unconnected-(U2-IO11-Pad19)*%
X137200000Y-101895000D03*
%TO.P,U2,20,IO12*%
%TO.N,unconnected-(U2-IO12-Pad20)*%
X137200000Y-103165000D03*
%TO.P,U2,21,IO13*%
%TO.N,unconnected-(U2-IO13-Pad21)*%
X137200000Y-104435000D03*
%TO.P,U2,22,IO14*%
%TO.N,unconnected-(U2-IO14-Pad22)*%
X137200000Y-105705000D03*
%TO.P,U2,23,IO21*%
%TO.N,unconnected-(U2-IO21-Pad23)*%
X137200000Y-106975000D03*
%TO.P,U2,24,IO47*%
%TO.N,unconnected-(U2-IO47-Pad24)*%
X137200000Y-108245000D03*
%TO.P,U2,25,IO48*%
%TO.N,unconnected-(U2-IO48-Pad25)*%
X137200000Y-109515000D03*
%TO.P,U2,26,IO45*%
%TO.N,unconnected-(U2-IO45-Pad26)*%
X137200000Y-110785000D03*
D26*
%TO.P,U2,27,IO0*%
%TO.N,/BOOT*%
X138450000Y-112550000D03*
%TO.P,U2,28,IO35*%
%TO.N,unconnected-(U2-IO35-Pad28)*%
X139720000Y-112550000D03*
%TO.P,U2,29,IO36*%
%TO.N,unconnected-(U2-IO36-Pad29)*%
X140990000Y-112550000D03*
%TO.P,U2,30,IO37*%
%TO.N,unconnected-(U2-IO37-Pad30)*%
X142260000Y-112550000D03*
%TO.P,U2,31,IO38*%
%TO.N,/RTX*%
X143530000Y-112550000D03*
%TO.P,U2,32,IO39*%
%TO.N,/DTX*%
X144800000Y-112550000D03*
%TO.P,U2,33,IO40*%
%TO.N,unconnected-(U2-IO40-Pad33)*%
X146070000Y-112550000D03*
%TO.P,U2,34,IO41*%
%TO.N,unconnected-(U2-IO41-Pad34)*%
X147340000Y-112550000D03*
%TO.P,U2,35,IO42*%
%TO.N,unconnected-(U2-IO42-Pad35)*%
X148610000Y-112550000D03*
%TO.P,U2,36,RXD0*%
%TO.N,unconnected-(U2-RXD0-Pad36)*%
X149880000Y-112550000D03*
%TO.P,U2,37,TXD0*%
%TO.N,unconnected-(U2-TXD0-Pad37)*%
X151150000Y-112550000D03*
%TO.P,U2,38,IO2*%
%TO.N,unconnected-(U2-IO2-Pad38)*%
X152420000Y-112550000D03*
%TO.P,U2,39,IO1*%
%TO.N,unconnected-(U2-IO1-Pad39)*%
X153690000Y-112550000D03*
%TO.P,U2,40,GND*%
%TO.N,GND*%
X154960000Y-112550000D03*
D28*
%TO.P,U2,41,GND*%
X147940000Y-100900000D03*
X146540000Y-100900000D03*
X148640000Y-101600000D03*
X147240000Y-101600000D03*
X145840000Y-101600000D03*
X147940000Y-102300000D03*
D29*
X147240000Y-102300000D03*
D28*
X146540000Y-102300000D03*
X148640000Y-103000000D03*
X147240000Y-103000000D03*
X145840000Y-103000000D03*
X147940000Y-103700000D03*
X146540000Y-103700000D03*
%TD*%
D25*
%TO.P,SW2,2,2*%
%TO.N,/EN*%
X151155000Y-88950000D03*
%TO.P,SW2,1,1*%
%TO.N,GND*%
X143405000Y-88950000D03*
%TD*%
D30*
%TO.P,U1,1,GND*%
%TO.N,GND*%
X115830000Y-92700000D03*
%TO.P,U1,2,VO*%
%TO.N,+3.3V*%
X118130000Y-92700000D03*
D31*
X118130000Y-86400000D03*
D30*
%TO.P,U1,3,VI*%
%TO.N,+5V*%
X120430000Y-92700000D03*
%TD*%
D18*
%TO.P,C2,1*%
%TO.N,+3.3V*%
X123880000Y-86525000D03*
%TO.P,C2,2*%
%TO.N,GND*%
X123880000Y-88075000D03*
%TD*%
D32*
%TO.P,J3,1,Pin_1*%
%TO.N,GND*%
X137210000Y-87300000D03*
D33*
%TO.P,J3,2,Pin_2*%
%TO.N,+3.3V*%
X134670000Y-87300000D03*
%TO.P,J3,3,Pin_3*%
%TO.N,/SCL*%
X132130000Y-87300000D03*
%TO.P,J3,4,Pin_4*%
%TO.N,/SDA*%
X129590000Y-87300000D03*
%TD*%
D34*
%TO.N,GND*%
X123930000Y-89100000D03*
X155430000Y-89950000D03*
X119033595Y-96776340D03*
X117430000Y-101325000D03*
X114480000Y-98175000D03*
%TO.N,+3.3V*%
X135180000Y-89225000D03*
%TO.N,GND*%
X123580000Y-94450000D03*
X122955000Y-109825000D03*
X115580000Y-104550000D03*
X115805000Y-94100000D03*
X125430000Y-97875000D03*
%TO.N,/DTX*%
X136280000Y-117750000D03*
%TO.N,/RTX*%
X142380000Y-114050000D03*
%TO.N,/SDA*%
X144780000Y-93050000D03*
%TO.N,/D+*%
X136380000Y-93850000D03*
%TO.N,/D-*%
X139680000Y-93750000D03*
%TO.N,+3.3V*%
X135705000Y-115275000D03*
%TO.N,/RTX*%
X136480000Y-114050000D03*
%TO.N,/DTX*%
X144780000Y-114650000D03*
%TO.N,/D-*%
X113680000Y-100650000D03*
%TO.N,/D+*%
X115867923Y-100869811D03*
%TO.N,/SCL*%
X146070000Y-93040000D03*
%TO.N,GND*%
X135680000Y-116500000D03*
X154980000Y-113850000D03*
%TO.N,+3.3V*%
X149680000Y-93350000D03*
%TO.N,GND*%
X128105000Y-114000000D03*
X148380000Y-92050000D03*
X142205000Y-88975000D03*
X137255000Y-89250000D03*
X149680000Y-118175000D03*
%TO.N,+3.3V*%
X153880000Y-89925000D03*
%TO.N,GND*%
X121980000Y-103125000D03*
%TO.N,+3.3V*%
X118130000Y-89725000D03*
X128655000Y-89750000D03*
X131755000Y-89725000D03*
%TD*%
D35*
%TO.N,/D-*%
X139680000Y-95010000D02*
X139720000Y-95050000D01*
X139680000Y-93750000D02*
X139680000Y-95010000D01*
%TO.N,/D+*%
X114705000Y-101300000D02*
X115437734Y-101300000D01*
X115437734Y-101300000D02*
X115867923Y-100869811D01*
%TO.N,Net-(U3-SW)*%
X121980000Y-96475000D02*
X124242500Y-96475000D01*
%TO.N,Net-(U3-BST)*%
X123530000Y-98812500D02*
X122767500Y-98812500D01*
%TO.N,+5V*%
X116129000Y-96793215D02*
X117196215Y-95726000D01*
X119679000Y-95726000D02*
X120455000Y-94950000D01*
%TO.N,Net-(U3-BST)*%
X122767500Y-98812500D02*
X121980000Y-98025000D01*
%TO.N,+5V*%
X114705000Y-100000000D02*
X114723140Y-100000000D01*
X120455000Y-94950000D02*
X120455000Y-92725000D01*
X114723140Y-100000000D02*
X116129000Y-98594140D01*
%TO.N,Net-(U3-SW)*%
X124480000Y-97187500D02*
X124717500Y-96950000D01*
X124242500Y-96475000D02*
X124717500Y-96950000D01*
%TO.N,+5V*%
X120455000Y-92725000D02*
X120430000Y-92700000D01*
X117196215Y-95726000D02*
X119679000Y-95726000D01*
%TO.N,/D-*%
X114705000Y-100650000D02*
X113680000Y-100650000D01*
%TO.N,Net-(U3-SW)*%
X124480000Y-98812500D02*
X124480000Y-97187500D01*
%TO.N,+5V*%
X116129000Y-98594140D02*
X116129000Y-96793215D01*
X126292500Y-93512500D02*
X126280000Y-93500000D01*
D36*
%TO.N,+12V*%
X125255000Y-101262500D02*
X125430000Y-101087500D01*
D35*
%TO.N,+5V*%
X126280000Y-93500000D02*
X125480000Y-92700000D01*
D36*
%TO.N,+12V*%
X125225000Y-102980000D02*
X125255000Y-102950000D01*
X125225000Y-105050000D02*
X125225000Y-102980000D01*
D35*
%TO.N,+5V*%
X125480000Y-92700000D02*
X120430000Y-92700000D01*
D36*
%TO.N,+12V*%
X125430000Y-101087500D02*
X124480000Y-101087500D01*
X125255000Y-102950000D02*
X125255000Y-101262500D01*
X121080000Y-106750000D02*
X124680000Y-106750000D01*
X124680000Y-106750000D02*
X125225000Y-106205000D01*
X125225000Y-106205000D02*
X125225000Y-105050000D01*
X121130000Y-117300000D02*
X119380000Y-115550000D01*
X119380000Y-108450000D02*
X121080000Y-106750000D01*
X119380000Y-115550000D02*
X119380000Y-108450000D01*
D35*
%TO.N,/SDA*%
X144780000Y-93050000D02*
X144800000Y-93070000D01*
X144800000Y-93070000D02*
X144800000Y-95050000D01*
%TO.N,/BOOT*%
X138100000Y-112900000D02*
X138450000Y-112550000D01*
%TO.N,/RTX*%
X134330000Y-113990000D02*
X136420000Y-113990000D01*
X136420000Y-113990000D02*
X136480000Y-114050000D01*
X142980000Y-114050000D02*
X143530000Y-113500000D01*
X143530000Y-113500000D02*
X143530000Y-112550000D01*
X142380000Y-114050000D02*
X142980000Y-114050000D01*
%TO.N,/D+*%
X137250000Y-93850000D02*
X138450000Y-95050000D01*
%TO.N,/EN*%
X151155000Y-88950000D02*
X152420000Y-90215000D01*
%TO.N,GND*%
X155430000Y-92800000D02*
X155430000Y-91050000D01*
%TO.N,/EN*%
X152420000Y-91850000D02*
X152420000Y-92150000D01*
%TO.N,/D+*%
X136380000Y-93850000D02*
X137250000Y-93850000D01*
%TO.N,/EN*%
X152420000Y-90215000D02*
X152420000Y-91850000D01*
%TO.N,+3.3V*%
X137060000Y-115750000D02*
X136180000Y-115750000D01*
%TO.N,/EN*%
X152320000Y-93350000D02*
X152420000Y-93450000D01*
X151200000Y-93350000D02*
X152320000Y-93350000D01*
%TO.N,+3.3V*%
X136180000Y-115750000D02*
X135705000Y-115275000D01*
%TO.N,GND*%
X121925000Y-103180000D02*
X121980000Y-103125000D01*
%TO.N,/CANH*%
X127080000Y-116195000D02*
X127080000Y-116530000D01*
%TO.N,/CANL*%
X127080000Y-115335000D02*
X127155000Y-115260000D01*
%TO.N,GND*%
X122155000Y-102950000D02*
X121980000Y-103125000D01*
%TO.N,/CANL*%
X127155000Y-115260000D02*
X129380000Y-115260000D01*
%TO.N,+3.3V*%
X118130000Y-92700000D02*
X118130000Y-89725000D01*
%TO.N,GND*%
X121925000Y-105050000D02*
X121925000Y-103180000D01*
X125430000Y-98812500D02*
X125430000Y-97875000D01*
%TO.N,/CANL*%
X127080000Y-115555000D02*
X127080000Y-115335000D01*
%TO.N,/CANH*%
X127080000Y-116530000D02*
X129380000Y-116530000D01*
%TO.N,GND*%
X123705000Y-102950000D02*
X122155000Y-102950000D01*
X114705000Y-103200000D02*
X114380000Y-103525000D01*
X114380000Y-99075000D02*
X114380000Y-98275000D01*
X149655000Y-118150000D02*
X149680000Y-118175000D01*
X149305000Y-92050000D02*
X148380000Y-92050000D01*
%TO.N,+3.3V*%
X135690000Y-115260000D02*
X135705000Y-115275000D01*
%TO.N,GND*%
X122930000Y-109800000D02*
X122955000Y-109825000D01*
%TO.N,+3.3V*%
X150560000Y-93350000D02*
X149680000Y-93350000D01*
%TO.N,GND*%
X116655000Y-94950000D02*
X115805000Y-94100000D01*
X142230000Y-88950000D02*
X142205000Y-88975000D01*
X154960000Y-113830000D02*
X154980000Y-113850000D01*
X137210000Y-89205000D02*
X137255000Y-89250000D01*
X117405000Y-101300000D02*
X117430000Y-101325000D01*
X121130000Y-109800000D02*
X122930000Y-109800000D01*
X123880000Y-89050000D02*
X123930000Y-89100000D01*
X143405000Y-88950000D02*
X142230000Y-88950000D01*
X116067500Y-105037500D02*
X115580000Y-104550000D01*
%TO.N,+3.3V*%
X134670000Y-88715000D02*
X135180000Y-89225000D01*
%TO.N,GND*%
X118905000Y-94950000D02*
X116655000Y-94950000D01*
X114380000Y-98275000D02*
X114480000Y-98175000D01*
X114380000Y-103525000D02*
X114555000Y-103525000D01*
X134330000Y-116530000D02*
X135650000Y-116530000D01*
X129380000Y-113990000D02*
X128115000Y-113990000D01*
X154960000Y-112550000D02*
X154960000Y-113830000D01*
X135650000Y-116530000D02*
X135680000Y-116500000D01*
X115830000Y-94075000D02*
X115805000Y-94100000D01*
%TO.N,+3.3V*%
X153880000Y-91050000D02*
X153880000Y-89925000D01*
%TO.N,GND*%
X128115000Y-113990000D02*
X128105000Y-114000000D01*
X114555000Y-103525000D02*
X115580000Y-104550000D01*
X114705000Y-102600000D02*
X114705000Y-103200000D01*
%TO.N,+3.3V*%
X134330000Y-115260000D02*
X135690000Y-115260000D01*
%TO.N,GND*%
X117380000Y-97125000D02*
X117728660Y-96776340D01*
X148355000Y-118150000D02*
X149655000Y-118150000D01*
X117728660Y-96776340D02*
X119033595Y-96776340D01*
X117380000Y-101300000D02*
X117405000Y-101300000D01*
X117380000Y-105037500D02*
X116067500Y-105037500D01*
X115830000Y-92700000D02*
X115830000Y-94075000D01*
%TO.N,+3.3V*%
X153880000Y-92800000D02*
X153880000Y-91050000D01*
X153690000Y-92990000D02*
X153880000Y-92800000D01*
X153690000Y-95050000D02*
X153690000Y-92990000D01*
%TO.N,/SCL*%
X146070000Y-93040000D02*
X146070000Y-95050000D01*
%TO.N,/EN*%
X150855000Y-92050000D02*
X152320000Y-92050000D01*
X152320000Y-92050000D02*
X152420000Y-92150000D01*
X152420000Y-92150000D02*
X152420000Y-93450000D01*
X152420000Y-93450000D02*
X152420000Y-95050000D01*
%TO.N,+5V*%
X123530000Y-100425001D02*
X124179001Y-99776000D01*
%TO.N,GND*%
X154960000Y-95050000D02*
X154960000Y-93270000D01*
%TO.N,+5V*%
X126031000Y-97556000D02*
X125425000Y-96950000D01*
X126031000Y-99515968D02*
X126031000Y-97556000D01*
%TO.N,GND*%
X124380000Y-95250000D02*
X123580000Y-94450000D01*
X124730000Y-93500000D02*
X124530000Y-93500000D01*
%TO.N,+5V*%
X124179001Y-99776000D02*
X125770968Y-99776000D01*
X126280000Y-96095000D02*
X126280000Y-93500000D01*
%TO.N,GND*%
X124530000Y-93500000D02*
X123580000Y-94450000D01*
X154960000Y-93270000D02*
X155430000Y-92800000D01*
X124730000Y-95250000D02*
X124380000Y-95250000D01*
X155430000Y-91050000D02*
X155430000Y-89950000D01*
%TO.N,+5V*%
X125425000Y-96950000D02*
X126280000Y-96095000D01*
X123530000Y-101087500D02*
X123530000Y-100425001D01*
X125770968Y-99776000D02*
X126031000Y-99515968D01*
%TO.N,/DTX*%
X134330000Y-117800000D02*
X136230000Y-117800000D01*
%TO.N,/CANH*%
X121130000Y-114800000D02*
X122830000Y-114800000D01*
%TO.N,/BOOT*%
X137700000Y-115750000D02*
X138350000Y-115750000D01*
%TO.N,/CANL*%
X125690000Y-115260000D02*
X127155000Y-115260000D01*
%TO.N,/BOOT*%
X140605000Y-118150000D02*
X138450000Y-115995000D01*
X138450000Y-115995000D02*
X138450000Y-115650000D01*
%TO.N,/DTX*%
X144800000Y-114630000D02*
X144800000Y-112550000D01*
%TO.N,/CANH*%
X124560000Y-116530000D02*
X127080000Y-116530000D01*
%TO.N,/DTX*%
X144780000Y-114650000D02*
X144800000Y-114630000D01*
%TO.N,/CANH*%
X122830000Y-114800000D02*
X124560000Y-116530000D01*
%TO.N,/CANL*%
X121130000Y-112300000D02*
X122730000Y-112300000D01*
%TO.N,/BOOT*%
X138450000Y-115650000D02*
X138450000Y-112550000D01*
%TO.N,/DTX*%
X136230000Y-117800000D02*
X136280000Y-117750000D01*
%TO.N,/CANL*%
X122730000Y-112300000D02*
X125690000Y-115260000D01*
%TO.N,/BOOT*%
X138350000Y-115750000D02*
X138450000Y-115650000D01*
%TO.N,+3.3V*%
X118130000Y-89725000D02*
X118130000Y-86400000D01*
%TO.N,GND*%
X123880000Y-88075000D02*
X123880000Y-89050000D01*
%TO.N,+3.3V*%
X134670000Y-87300000D02*
X134670000Y-88715000D01*
%TO.N,GND*%
X137210000Y-87300000D02*
X137210000Y-89205000D01*
%TO.N,+3.3V*%
X123755000Y-86400000D02*
X123880000Y-86525000D01*
X118130000Y-86400000D02*
X123755000Y-86400000D01*
%TD*%
M02*
