%TF.GenerationSoftware,KiCad,Pcbnew,9.0.6*%
%TF.CreationDate,2026-03-28T15:48:50-07:00*%
%TF.ProjectId,OBDTelemetryPCB,4f424454-656c-4656-9d65-747279504342,rev?*%
%TF.SameCoordinates,Original*%
%TF.FileFunction,Paste,Top*%
%TF.FilePolarity,Positive*%
%FSLAX46Y46*%
G04 Gerber Fmt 4.6, Leading zero omitted, Abs format (unit mm)*
G04 Created by KiCad (PCBNEW 9.0.6) date 2026-03-28 15:48:50*
%MOMM*%
%LPD*%
G01*
G04 APERTURE LIST*
G04 Aperture macros list*
%AMRoundRect*
0 Rectangle with rounded corners*
0 $1 Rounding radius*
0 $2 $3 $4 $5 $6 $7 $8 $9 X,Y pos of 4 corners*
0 Add a 4 corners polygon primitive as box body*
4,1,4,$2,$3,$4,$5,$6,$7,$8,$9,$2,$3,0*
0 Add four circle primitives for the rounded corners*
1,1,$1+$1,$2,$3*
1,1,$1+$1,$4,$5*
1,1,$1+$1,$6,$7*
1,1,$1+$1,$8,$9*
0 Add four rect primitives between the rounded corners*
20,1,$1+$1,$2,$3,$4,$5,0*
20,1,$1+$1,$4,$5,$6,$7,0*
20,1,$1+$1,$6,$7,$8,$9,0*
20,1,$1+$1,$8,$9,$2,$3,0*%
G04 Aperture macros list end*
%ADD10R,0.850000X0.300000*%
%ADD11RoundRect,0.100000X0.575000X-0.100000X0.575000X0.100000X-0.575000X0.100000X-0.575000X-0.100000X0*%
%ADD12RoundRect,0.250000X0.700000X-1.200000X0.700000X1.200000X-0.700000X1.200000X-0.700000X-1.200000X0*%
%ADD13RoundRect,0.225000X-0.225000X-0.375000X0.225000X-0.375000X0.225000X0.375000X-0.225000X0.375000X0*%
%ADD14RoundRect,0.225000X-0.225000X-0.250000X0.225000X-0.250000X0.225000X0.250000X-0.225000X0.250000X0*%
%ADD15RoundRect,0.225000X0.225000X0.250000X-0.225000X0.250000X-0.225000X-0.250000X0.225000X-0.250000X0*%
%ADD16RoundRect,0.225000X-0.250000X0.225000X-0.250000X-0.225000X0.250000X-0.225000X0.250000X0.225000X0*%
%ADD17RoundRect,0.150000X0.825000X0.150000X-0.825000X0.150000X-0.825000X-0.150000X0.825000X-0.150000X0*%
%ADD18RoundRect,0.150000X0.150000X-0.512500X0.150000X0.512500X-0.150000X0.512500X-0.150000X-0.512500X0*%
%ADD19RoundRect,0.079500X-0.079500X-0.100500X0.079500X-0.100500X0.079500X0.100500X-0.079500X0.100500X0*%
%ADD20RoundRect,0.079500X-0.100500X0.079500X-0.100500X-0.079500X0.100500X-0.079500X0.100500X0.079500X0*%
%ADD21R,1.250000X1.000000*%
%ADD22R,0.900000X0.900000*%
%ADD23R,0.900000X1.500000*%
%ADD24R,1.500000X0.900000*%
%ADD25RoundRect,0.375000X0.375000X-0.625000X0.375000X0.625000X-0.375000X0.625000X-0.375000X-0.625000X0*%
%ADD26RoundRect,0.500000X1.400000X-0.500000X1.400000X0.500000X-1.400000X0.500000X-1.400000X-0.500000X0*%
G04 APERTURE END LIST*
D10*
%TO.C,J1*%
X117380000Y-104800000D03*
X117380000Y-97800000D03*
D11*
X114705000Y-100000000D03*
X114705000Y-100650000D03*
X114705000Y-101300000D03*
X114705000Y-101950000D03*
X114705000Y-102600000D03*
D12*
X117380000Y-101300000D03*
%TD*%
D13*
%TO.C,D1*%
X121925000Y-105050000D03*
X125225000Y-105050000D03*
%TD*%
D14*
%TO.C,C4*%
X153880000Y-92800000D03*
X155430000Y-92800000D03*
%TD*%
D15*
%TO.C,C5*%
X125255000Y-102950000D03*
X123705000Y-102950000D03*
%TD*%
D16*
%TO.C,C7*%
X121980000Y-96475000D03*
X121980000Y-98025000D03*
%TD*%
D14*
%TO.C,C6*%
X153880000Y-91050000D03*
X155430000Y-91050000D03*
%TD*%
D17*
%TO.C,U4*%
X129380000Y-117800000D03*
X129380000Y-116530000D03*
X129380000Y-115260000D03*
X129380000Y-113990000D03*
X134330000Y-113990000D03*
X134330000Y-115260000D03*
X134330000Y-116530000D03*
X134330000Y-117800000D03*
%TD*%
D14*
%TO.C,C8*%
X126280000Y-93500000D03*
X124730000Y-93500000D03*
%TD*%
D18*
%TO.C,U3*%
X123530000Y-101087500D03*
X124480000Y-101087500D03*
X125430000Y-101087500D03*
X125430000Y-98812500D03*
X124480000Y-98812500D03*
X123530000Y-98812500D03*
%TD*%
D15*
%TO.C,C1*%
X118905000Y-94950000D03*
X120455000Y-94950000D03*
%TD*%
D19*
%TO.C,L1*%
X125450000Y-96950000D03*
X124760000Y-96950000D03*
%TD*%
D20*
%TO.C,R3*%
X127080000Y-116220000D03*
X127080000Y-115530000D03*
%TD*%
D19*
%TO.C,R2*%
X150535000Y-93350000D03*
X151225000Y-93350000D03*
%TD*%
D21*
%TO.C,SW1*%
X140605000Y-118150000D03*
X148355000Y-118150000D03*
%TD*%
D19*
%TO.C,R1*%
X137725000Y-115750000D03*
X137035000Y-115750000D03*
%TD*%
D14*
%TO.C,C3*%
X150855000Y-92050000D03*
X149305000Y-92050000D03*
%TD*%
%TO.C,C9*%
X126280000Y-95250000D03*
X124730000Y-95250000D03*
%TD*%
D22*
%TO.C,U2*%
X148640000Y-100900000D03*
X147240000Y-100900000D03*
X145840000Y-100900000D03*
X148640000Y-102300000D03*
X147240000Y-102300000D03*
X145840000Y-102300000D03*
X148640000Y-103700000D03*
X147240000Y-103700000D03*
X145840000Y-103700000D03*
D23*
X154960000Y-95050000D03*
X153690000Y-95050000D03*
X152420000Y-95050000D03*
X151150000Y-95050000D03*
X149880000Y-95050000D03*
X148610000Y-95050000D03*
X147340000Y-95050000D03*
X146070000Y-95050000D03*
X144800000Y-95050000D03*
X143530000Y-95050000D03*
X142260000Y-95050000D03*
X140990000Y-95050000D03*
X139720000Y-95050000D03*
X138450000Y-95050000D03*
D24*
X137200000Y-96815000D03*
X137200000Y-98085000D03*
X137200000Y-99355000D03*
X137200000Y-100625000D03*
X137200000Y-101895000D03*
X137200000Y-103165000D03*
X137200000Y-104435000D03*
X137200000Y-105705000D03*
X137200000Y-106975000D03*
X137200000Y-108245000D03*
X137200000Y-109515000D03*
X137200000Y-110785000D03*
D23*
X138450000Y-112550000D03*
X139720000Y-112550000D03*
X140990000Y-112550000D03*
X142260000Y-112550000D03*
X143530000Y-112550000D03*
X144800000Y-112550000D03*
X146070000Y-112550000D03*
X147340000Y-112550000D03*
X148610000Y-112550000D03*
X149880000Y-112550000D03*
X151150000Y-112550000D03*
X152420000Y-112550000D03*
X153690000Y-112550000D03*
X154960000Y-112550000D03*
%TD*%
D21*
%TO.C,SW2*%
X151155000Y-88950000D03*
X143405000Y-88950000D03*
%TD*%
D25*
%TO.C,U1*%
X115830000Y-92700000D03*
X118130000Y-92700000D03*
D26*
X118130000Y-86400000D03*
D25*
X120430000Y-92700000D03*
%TD*%
D16*
%TO.C,C2*%
X123880000Y-86525000D03*
X123880000Y-88075000D03*
%TD*%
M02*
